Jump_normalized_precision_landing05_filtered_grf
version=1
nRows=20
nColumns=37
inDegrees=yes
endheader
time		1_ground_force_vx		1_ground_force_vy		1_ground_force_vz		1_ground_force_px		1_ground_force_py		1_ground_force_pz		1_ground_torque_x		1_ground_torque_y		1_ground_torque_z		2_ground_force_vx		2_ground_force_vy		2_ground_force_vz		2_ground_force_px		2_ground_force_py		2_ground_force_pz		2_ground_torque_x		2_ground_torque_y		2_ground_torque_z		3_ground_force_vx		3_ground_force_vy		3_ground_force_vz		3_ground_force_px		3_ground_force_py		3_ground_force_pz		3_ground_torque_x		3_ground_torque_y		3_ground_torque_z		4_ground_force_vx		4_ground_force_vy		4_ground_force_vz		4_ground_force_px		4_ground_force_py		4_ground_force_pz		4_ground_torque_x		4_ground_torque_y		4_ground_torque_z		
0.429500		0.000000		-0.000000		-0.000000		0.118404		0.000000		0.326900		-0.000000		-0.000000		0.000000		0.000000		0.000000		0.000000		-0.178590		0.000000		0.245785		0.000000		-0.000000		0.000000		-48.318024		532.857356		94.376566		0.381557		1.273666		1.885245		2.469809		-27.237367		-4.824123		65.637815		456.271225		77.423617		-0.352133		1.267209		1.873846		3.118182		21.675564		3.678077		
0.432909		0.000000		-0.000000		-0.000000		0.118404		0.000000		0.326900		-0.000000		-0.000000		0.000000		-0.000000		0.000000		0.000000		-0.178590		0.000000		0.245785		0.000000		-0.000000		0.000000		-47.812149		535.563683		93.524856		0.381568		1.273662		1.885269		2.450561		-27.449749		-4.793517		66.223542		459.877941		76.776222		-0.352136		1.267213		1.873875		3.147609		21.858032		3.649179		
0.436318		0.000000		-0.000000		-0.000000		0.118404		0.000000		0.326900		-0.000000		-0.000000		0.000000		-0.000000		-0.000000		-0.000000		-0.178590		0.000000		0.245785		-0.000000		0.000000		-0.000000		-47.293413		538.088464		92.701979		0.381574		1.273652		1.885287		2.431388		-27.663516		-4.765874		66.804917		463.438417		76.261612		-0.352148		1.267219		1.873901		3.177440		22.042505		3.627228		
0.439727		0.000000		-0.000000		-0.000000		0.118404		0.000000		0.326900		-0.000000		-0.000000		0.000000		-0.000000		-0.000000		-0.000000		-0.178590		0.000000		0.245785		-0.000000		0.000000		-0.000000		-46.836901		540.536814		92.018903		0.381574		1.273633		1.885303		2.416435		-27.887675		-4.747489		67.388918		466.999232		75.933310		-0.352165		1.267225		1.873921		3.207921		22.230607		3.614660		
0.443136		-0.000000		0.000000		0.000000		0.118404		0.000000		0.326900		0.000000		0.000000		-0.000000		-0.000000		-0.000000		-0.000000		-0.178590		0.000000		0.245785		-0.000000		0.000000		-0.000000		-46.470362		543.025448		91.553935		0.381567		1.273607		1.885321		2.407078		-28.127711		-4.742323		67.977417		470.553860		75.786896		-0.352186		1.267230		1.873938		3.239086		22.421629		3.611203		
0.446545		-0.000000		0.000000		0.000000		0.118404		0.000000		0.326900		0.000000		0.000000		-0.000000		-0.000000		-0.000000		-0.000000		-0.178590		0.000000		0.245785		-0.000000		0.000000		-0.000000		-46.194039		545.665628		91.278611		0.381550		1.273580		1.885348		2.402931		-28.384549		-4.748150		68.562769		474.046094		75.755527		-0.352206		1.267233		1.873951		3.270576		22.612912		3.613684		
0.449955		-0.000000		0.000000		0.000000		0.118404		0.000000		0.326900		0.000000		0.000000		-0.000000		0.000000		-0.000000		-0.000000		-0.178590		0.000000		0.245785		-0.000000		0.000000		0.000000		-46.003212		548.519451		91.115486		0.381519		1.273556		1.885387		2.403230		-28.654916		-4.759916		69.129381		477.400223		75.725233		-0.352226		1.267231		1.873966		3.301545		22.800121		3.616555		
0.453364		-0.000000		0.000000		0.000000		0.118404		0.000000		0.326900		0.000000		0.000000		-0.000000		0.000000		0.000000		0.000000		-0.178590		0.000000		0.245785		0.000000		-0.000000		0.000000		-45.885970		551.572984		90.927824		0.381478		1.273547		1.885440		2.406952		-28.932798		-4.769624		69.658790		480.558140		75.581014		-0.352244		1.267222		1.873982		3.330782		22.978215		3.613957		
0.456773		-0.000000		-0.000000		0.000000		0.118404		0.000000		0.326900		0.000000		0.000000		-0.000000		0.000000		0.000000		0.000000		-0.178590		0.000000		0.245785		0.000000		-0.000000		0.000000		-45.827254		554.723368		90.626887		0.381434		1.273551		1.885500		2.413115		-29.209943		-4.772119		70.138541		483.509830		75.248014		-0.352263		1.267204		1.873998		3.357251		23.143676		3.601820		
0.460182		0.000000		-0.000000		-0.000000		0.118404		0.000000		0.326900		-0.000000		-0.000000		0.000000		0.000000		0.000000		0.000000		-0.178590		0.000000		0.245785		0.000000		-0.000000		0.000000		-45.788330		557.830647		90.129013		0.381399		1.273563		1.885561		2.419637		-29.477983		-4.762774		70.569408		486.303280		74.730063		-0.352281		1.267177		1.874010		3.380681		23.296729		3.580000		
0.463591		0.000000		-0.000000		-0.000000		0.118404		0.000000		0.326900		-0.000000		-0.000000		0.000000		-0.000000		0.000000		0.000000		-0.178590		0.000000		0.245785		0.000000		-0.000000		0.000000		-45.717145		560.765324		89.385149		0.381382		1.273575		1.885620		2.423784		-29.730071		-4.738928		70.962309		489.036563		74.108196		-0.352300		1.267142		1.874017		3.401608		23.442172		3.552408		
0.467000		0.000000		-0.000000		-0.000000		0.118404		0.000000		0.326900		-0.000000		-0.000000		0.000000		-0.000000		-0.000000		0.000000		-0.178590		0.000000		0.245785		-0.000000		0.000000		-0.000000		-45.562578		563.444858		88.397689		0.381385		1.273581		1.885678		2.422927		-29.962878		-4.700813		71.339931		491.836774		73.459202		-0.352317		1.267102		1.874021		3.421354		23.587740		3.522991		
0.470409		0.000000		-0.000000		-0.000000		0.118404		0.000000		0.326900		-0.000000		-0.000000		0.000000		-0.000000		-0.000000		-0.000000		-0.178590		0.000000		0.245785		-0.000000		0.000000		-0.000000		-45.310766		565.844930		87.199331		0.381406		1.273578		1.885735		2.416546		-30.178053		-4.650578		71.719143		494.820363		72.840646		-0.352332		1.267061		1.874024		3.440990		23.740830		3.494798		
0.473818		-0.000000		0.000000		-0.000000		0.118404		0.000000		0.326900		0.000000		-0.000000		-0.000000		-0.000000		-0.000000		-0.000000		-0.178590		0.000000		0.245785		-0.000000		0.000000		-0.000000		-44.992095		567.983034		85.864264		0.381435		1.273568		1.885795		2.406611		-30.381214		-4.592848		72.104198		498.056262		72.236912		-0.352343		1.267026		1.874029		3.460988		23.906609		3.467359		
0.477227		-0.000000		0.000000		0.000000		0.118404		0.000000		0.326900		0.000000		0.000000		-0.000000		-0.000000		-0.000000		-0.000000		-0.178590		0.000000		0.245785		-0.000000		0.000000		-0.000000		-44.657621		569.885949		84.481045		0.381461		1.273556		1.885858		2.396185		-30.578263		-4.532982		72.486453		501.537224		71.586337		-0.352353		1.266998		1.874038		3.481376		24.087806		3.438145		
0.480636		-0.000000		0.000000		0.000000		0.118404		0.000000		0.326900		0.000000		0.000000		-0.000000		0.000000		-0.000000		-0.000000		-0.178590		0.000000		0.245785		-0.000000		0.000000		-0.000000		-44.342598		571.566085		83.129263		0.381473		1.273548		1.885924		2.387302		-30.771786		-4.475484		72.860240		505.177919		70.804450		-0.352364		1.266977		1.874054		3.502579		24.285204		3.403752		
0.484045		-0.000000		0.000000		0.000000		0.118404		0.000000		0.326900		0.000000		0.000000		-0.000000		0.000000		0.000000		0.000000		-0.178590		0.000000		0.245785		0.000000		-0.000000		0.000000		-44.050062		573.019042		81.850766		0.381468		1.273548		1.885990		2.379980		-30.959638		-4.422314		73.233737		508.845971		69.843810		-0.352377		1.266960		1.874072		3.525734		24.497661		3.362530		
0.487455		-0.000000		0.000000		0.000000		0.118404		0.000000		0.326900		0.000000		0.000000		-0.000000		0.000000		0.000000		0.000000		-0.178590		0.000000		0.245785		0.000000		-0.000000		0.000000		-43.762311		574.241793		80.645592		0.381451		1.273554		1.886054		2.372874		-31.136463		-4.372754		73.627191		512.425443		68.689535		-0.352394		1.266942		1.874093		3.552186		24.722263		3.313966		
0.490864		0.000000		-0.000000		0.000000		0.118404		0.000000		0.326900		-0.000000		0.000000		0.000000		0.000000		0.000000		0.000000		-0.178590		0.000000		0.245785		0.000000		-0.000000		0.000000		-43.461276		575.256715		79.489335		0.381434		1.273565		1.886116		2.364532		-31.297132		-4.324656		74.053472		515.871766		67.345418		-0.352411		1.266924		1.874117		3.582235		24.954590		3.257741		
0.494273		0.000000		-0.000000		-0.000000		0.118404		0.000000		0.326900		-0.000000		-0.000000		0.000000		0.000000		0.000000		0.000000		-0.178590		0.000000		0.245785		0.000000		-0.000000		0.000000		-43.142720		576.117630		78.330135		0.381424		1.273578		1.886174		2.354360		-31.439563		-4.274587		74.502853		519.222638		65.830795		-0.352427		1.266904		1.874146		3.614480		25.189903		3.193756		
